# xmcd
#
# Track frame offsets: 
#        150
#        15926
#        29404
#        41625
#        54405
#        72927
#        84196
#        99413
#        114954
#        124305
#        140944
#        155210
#
# Disc length: 2268 seconds
#
# Revision: 0
# Processed by: cddbd v1.5.2PL0 Copyright (c) Steve Scherf et al.
# Submitted via: ExactAudioCopy v1.3
#
DISCID=9d08da0c
DTITLE=Erik Darling - True Religion And Other Blues, Ballads And Folks
DTITLE=ongs
DYEAR=1961
DGENRE=Country/folk
TTITLE0=True Religion
TTITLE1=St. Johns River
TTITLE2=Woody Knows Nothing
TTITLE3=Virgin Mary
TTITLE4=Diamond Ring
TTITLE5=Blackeyed Susie
TTITLE6=I'm On My Way
TTITLE7=Cuckoo
TTITLE8=Jumpin' Judy
TTITLE9=Moanin' Dove
TTITLE10=Frankie And Johnny
TTITLE11=Lonesome Valley
EXTD=
EXTT0=
EXTT1=
EXTT2=
EXTT3=
EXTT4=
EXTT5=
EXTT6=
EXTT7=
EXTT8=
EXTT9=
EXTT10=
EXTT11=
PLAYORDER=
